# xmcd
#
# Track frame offsets:
#	150
#	16579
#	35440
#	49589
#	67302
#	85785
#	100650
#	119588
#	140101
#	156096
#	175872
#	193033
#	206426
#	218545
#	234979
#	247845
#	266061
#	279307
#	294078
#	308521
#
# Disc length: 4329 seconds
#
# Revision: 0
# Processed by: cddbd v1.5.2PL0 Copyright (c) Steve Scherf et al.
# Submitted via: EasyCDDAExtractor 10.0.1.1
#
DISCID=0e10e714
DTITLE=Various Artist - Marko Polo fest 2
DYEAR=1900
DGENRE=Country
TTITLE0=Neno Belan - Ðina
TTITLE1=Lada i Lana Olujic - Zagreb, Pariz ili Prag
TTITLE2=Dražen Žanko - Što sve ljubav može
TTITLE3=Mario Roso - Nemam srece
TTITLE4=Meri Cetinic - Daleko, daleko
TTITLE5=Goran Škerlep - Srce dalmatinsko
TTITLE6=Breškovic Brothers - Mijenjaj se
TTITLE7=Klapa Sol - Ne reci mi more moje
TTITLE8=Milo Ostovic - Mostovi
TTITLE9=Azzurro - Nevjera
TTITLE10=Vesna Nežic-Ružic - Nemoj me tražiti
TTITLE11=Fiumens - Sutra
TTITLE12=Mladen Žmak - Mislio sam da je život
TTITLE13=Roky - Suša u duši
TTITLE14=Valentina Jeletic - Bijeli vukovi
TTITLE15=Igor Karaban - To je ljubav
TTITLE16=Giordano band - ,KIše jesenje
TTITLE17=Ivo Ujevic - O' lito moje, lito drago
TTITLE18=Ana Bebic - Kad odu moje prijateljice
TTITLE19=Klapa Puntari - Vrime cini svoje
EXTD=
EXTT0=
EXTT1=
EXTT2=
EXTT3=
EXTT4=
EXTT5=
EXTT6=
EXTT7=
EXTT8=
EXTT9=
EXTT10=
EXTT11=
EXTT12=
EXTT13=
EXTT14=
EXTT15=
EXTT16=
EXTT17=
EXTT18=
EXTT19=
PLAYORDER=
